<svg id="netto_logo_v4_svg" data-name="netto logo" xmlns="http://www.w3.org/2000/svg" viewBox="0 0 907.66 212.6"><defs><style>.cls-1{fill:#fad85b;}.cls-2{fill:#242424;}</style></defs><title>Netto Logo 4</title><path class="cls-1" d="M304.37,118.21c0-42.09-24.59-65.37-63.66-65.37-43.47,0-69.19,25.26-69.19,71.8,0,45.39,26.54,69.82,69.19,69.82,23,0,42-6.6,63.66-22L290.2,143.79c-17.26,8.09-29.14,11.72-47.37,11.72-13.52,0-20.52-5.28-23-18.16h83.36A174.18,174.18,0,0,0,304.37,118.21ZM219.71,110c2.11-15.18,9.6-22.44,21-22.44,12.7,0,19.7,7.92,20.19,22.44Z"/><path class="cls-1" d="M480.52,153.86c-12.37,0-15.46-5.94-15.46-16V97.41h31.58V55.65H465.06V21.26H414.91V55.65H374V21.26H323.82V55.65H305.58V97.41h18.24V140c0,39,13.83,54.14,46.23,54.14,15,0,32.07-4.12,41.52-10.07l-5.05-30.53c-6.35.33-11.23.33-17.09.33-12.38,0-15.47-5.94-15.47-16V97.41h41V140c0,39,13.84,54.14,46.24,54.14,15,0,32.07-4.12,41.51-10.07l-5-30.53C491.27,153.86,486.38,153.86,480.52,153.86Z"/><path class="cls-1" d="M571.37,52.84c-44.61,0-70.82,25.75-70.82,71.47,0,44.57,26.37,70.15,71,70.15s70.82-25.58,70.82-70.15C642.35,78.43,616,52.84,571.37,52.84Zm.16,101.84c-13.84,0-21.81-7.59-21.81-30.37,0-23.76,8.3-31.69,21.81-31.69s21.82,7.93,21.82,31.69C593.35,146.93,585,154.52,571.53,154.68Z"/><polygon class="cls-1" points="110.97 93.47 111.25 107.42 47.12 21.26 0 21.26 0 191.34 52.14 191.34 52.14 119.96 51.86 105.19 115.99 191.34 163.11 191.34 163.11 21.26 110.97 21.26 110.97 93.47"/><path class="cls-1" d="M907.66,106.3A106.3,106.3,0,1,1,801.37,0,106.3,106.3,0,0,1,907.66,106.3"/><path class="cls-2" d="M865,151.61,781.85,31.24c-1.32-1.78-2.14-1.17-2.18-.37q-.1,6.3-.19,12.59c0,1-.17,1-.55.73C776,42,774,39.25,771.46,36.88a1.11,1.11,0,0,0-1.83.92l1.65,9.3c.18,1.65,1.27,4,0,5.29-2.74,3.47-5.29-1.27-8.21-1.27-2.19,1.09,1.64,2.92.36,4.37-2.37-2-5.83-4.37-9.12-3.28.19,2.19,3.65,3.1,3.47,5.47a10.94,10.94,0,0,0-7.11-2.92c-.92,0-2.56-.54-2.74.92C749,57,751,57.5,752.13,59c.18.73.36,1.46-.37,1.82-6,1.83-12,3.83-17.87,6.2a4.28,4.28,0,0,0-1.46,4c2.55,8.75,6,16.41,5.29,27-.18.73.73,1.09,1.27.73l5.66-6.57c1.64.37.54,2.92.91,4,0,1.09-.18,3.28,1.28,2.73,1.46-1.64,3.1-4.19,4.74-5.11-.19,2.38.36,5.11-.19,8l-16.77.18c-.19,9.49.18,19.7,0,31.19,0,4.93,1.49,7.66,5.47,7.66h30.27c5,0,6.39-2.18,6.39-6V102.18l-17.33-.36c.55-4.38-2-7.84,2.55-11.49,2.92-2.37.73,3.28,2.37,3.28,3.83-2.37,5.48-8.75,10.76-8.75a4.71,4.71,0,0,1,4.39,4.46l.36,53c-.56,7.64-2.66,7.67-8,13.86a7.58,7.58,0,0,0,0,5.29,6.59,6.59,0,0,0,4.2,3.46l81.16.19a10.41,10.41,0,0,0,6.56-3.65,10.14,10.14,0,0,0,1.28-9.85M753.4,83.76h4.2l.18,18.06-4.56-.18Zm-16.84,53.09c-1.15-3.1-.86-7.78-.12-10.41H737l4.19,4.92ZM770.18,119a28.21,28.21,0,0,1,4.92-5.47v9.85l-.54.36Zm4,7.12L769.82,131l-6.39-6.93,4.38-4.74C769.82,121.33,772.37,123.89,774.19,126.08Zm-4.37-9.49-5.29-5.84c2.92-.18,5.83,0,8.93,0l.73.74A42.77,42.77,0,0,1,769.82,116.59Zm-2.37,0a52.68,52.68,0,0,1-6,7.11c-1.46-1.45-3.1-3.09-4.38-4.56l.18-.72,5.84-6.39Zm-6.57,9.49a26.36,26.36,0,0,1-4.2,4.74l-6.2-6.93,4.2-4.56A54.82,54.82,0,0,1,760.88,126.08Zm-4.2-9.67c-2-1.46-3.46-3.65-5.1-5.29a46,46,0,0,1,8.75-.37l.55.92C760,113.31,758,115,756.68,116.41Zm-2.18.36-6,6.75-.55-.18-4.2-4.56,6.21-6.93Zm-6.57,9.12a23.62,23.62,0,0,1-4.56,5.11c-2-2.19-4.19-4.19-6.2-6.75.91-2,2.92-3.28,4.38-5.11Zm-4.56-9.66-4.74-5.29a44.32,44.32,0,0,1,8.57-.19l.55.74Zm-2,.36a74,74,0,0,1-5.1,5.66l-.18-9.31.72-1.09C738.45,112.76,739.91,115,741.36,116.59Zm-4.05,21.86,4.05-4.71c2.19,1.64,3.65,3.83,5.29,5.83C743.55,139.39,739.32,140.64,737.31,138.45Zm6.42-4.9c1.83-2.55,4.2-4.74,6.21-7.11,1.64,1.09,2.91,3.1,4.56,4.56l-.19.55-6.2,6.74Zm7.48,6c-.36,0-.73-.54-.91-.91l4.38-5.11c2,1.83,3.65,3.65,5.47,5.66Zm5.84-6.2c1.82-2.37,4-4.74,6-6.93l4.56,4.92-6.2,6.57C759.6,136.65,758.51,134.65,757.05,133.37Zm7.11,5.84-.54-.73c1.45-1.64,2.55-3.65,4.37-4.74l4.78,5.28C770.9,140.33,766.72,139.39,764.16,139.21ZM774.21,138,770,133.55l5.11-5.7C775.44,131.58,775.86,136.36,774.21,138Zm.53-34.51c.55,1.64.18,3.65.36,5.47H736.26c-.18-2-.55-3.65,0-5.47Z"/></svg>